<svg id="圖層_1" data-name="圖層 1" xmlns="http://www.w3.org/2000/svg" viewBox="0 0 2048 1146"><defs><style>.cls-1{fill:#2fbee6;}.cls-2{fill:#fff;}</style></defs><title>code_for_harima_logo_1</title><circle class="cls-1" cx="340.06" cy="572.23" r="271.83"/><path class="cls-2" d="M453.27,610H360.75V574.47a18.19,18.19,0,0,0-18.18-18.18h-2a18.19,18.19,0,0,0-18.17,18.18V610H250.61a11.38,11.38,0,0,1-11.37-11.37V527.56h-16.9a37.8,37.8,0,0,1-37.76-37.75v-2a37.8,37.8,0,0,1,37.76-37.76h16.9V396a11.38,11.38,0,0,1,11.37-11.37h52.25V366.4a37.8,37.8,0,0,1,37.75-37.76h2a37.8,37.8,0,0,1,37.76,37.76v18.18h72.94A11.39,11.39,0,0,1,464.65,396v73.72H430.41a18.2,18.2,0,0,0-18.18,18.18v2A18.19,18.19,0,0,0,430.41,508h34.24v90.63A11.39,11.39,0,0,1,453.27,610Zm-72.94-19.57h64.74V527.56H430.41a37.8,37.8,0,0,1-37.76-37.75v-2a37.8,37.8,0,0,1,37.76-37.76h14.66V404.15H360.75V366.4a18.19,18.19,0,0,0-18.18-18.18h-2a18.19,18.19,0,0,0-18.17,18.18v37.75H258.81v65.52H222.34a18.2,18.2,0,0,0-18.18,18.18v2A18.19,18.19,0,0,0,222.34,508h36.47v82.43h44.05V574.47a37.8,37.8,0,0,1,37.75-37.76h2a37.8,37.8,0,0,1,37.76,37.76Z"/><path class="cls-2" d="M194.14,680.35a19.76,19.76,0,0,0,9.55-2.4v9.31a28.26,28.26,0,0,1-9.55,1.65,28.67,28.67,0,0,1,0-57.34,29,29,0,0,1,9.55,1.61v9.35a19.57,19.57,0,0,0-9.55-2.43,20.13,20.13,0,0,0,0,40.25Z"/><path class="cls-2" d="M216.17,680.5a28.62,28.62,0,1,1,20.27,8.41A27.6,27.6,0,0,1,216.17,680.5ZM222.22,646a20.1,20.1,0,1,0,14.22-5.89A19.34,19.34,0,0,0,222.22,646Z"/><path class="cls-2" d="M271.54,688.36v-56.2h14.77a28.1,28.1,0,0,1,0,56.2Zm8.49-8.48h6.28a19.62,19.62,0,0,0,0-39.23H280Z"/><path class="cls-2" d="M350.16,632.16v8.53H330v15.23h15.55v8.52H330v15.4h20.14v8.52H321.49v-56.2Z"/><path class="cls-2" d="M405.61,632.16v8.53H385.47v15.23H401v8.52H385.47v23.92h-8.53v-56.2Z"/><path class="cls-2" d="M417.86,680.5a28.62,28.62,0,1,1,20.27,8.41A27.6,27.6,0,0,1,417.86,680.5ZM423.91,646a20.1,20.1,0,1,0,14.22-5.89A19.34,19.34,0,0,0,423.91,646Z"/><path class="cls-2" d="M513,688.36h-9.62L491.1,664.68h-9.62v23.68H473v-56.2h20.73a16.23,16.23,0,0,1,13.47,25.33,16,16,0,0,1-7.1,5.89Zm-19.32-32.2a7.72,7.72,0,0,0,7.7-7.7,7.57,7.57,0,0,0-2.24-5.5,7.44,7.44,0,0,0-5.46-2.27H481.48v15.47Z"/><path class="cls-2" d="M242.43,716.06v56.2H233.9V748.38H211.05v23.88h-8.52V716.14h8.52v23.72H233.9v-23.8Z"/><path class="cls-2" d="M292.77,716.06v56.2h-8.56V759.14H265.12l-8.28,13.12h-10.1l35.54-56.2ZM270.5,750.62h13.71V729Z"/><path class="cls-2" d="M342,772.26h-9.63l-12.29-23.68h-9.62v23.68h-8.52v-56.2h20.73a16.23,16.23,0,0,1,13.47,25.33,16,16,0,0,1-7.1,5.89Zm-19.33-32.2a7.72,7.72,0,0,0,7.7-7.7,7.57,7.57,0,0,0-2.24-5.5,7.45,7.45,0,0,0-5.46-2.28H310.44v15.48Z"/><path class="cls-2" d="M355.4,772.26h-8.52V716.14h8.52Z"/><path class="cls-2" d="M422.87,716.06v56.2h-8.52v-35.7l-15.63,35.7H389.1L373.74,736.8v35.46h-8.52v-56.2h8.92l19.79,45.87,20-45.87Z"/><path class="cls-2" d="M473.76,716.06v56.2H465.2V759.14H446.12l-8.29,13.12H427.74l35.54-56.2ZM451.5,750.62h13.7V729Z"/><path class="cls-1" d="M691.1,606.33a28.71,28.71,0,0,0,13.79-3.46v13.45a40.86,40.86,0,0,1-13.79,2.38,41.43,41.43,0,0,1,0-82.86,41.82,41.82,0,0,1,13.79,2.33v13.51a28.21,28.21,0,0,0-13.79-3.52,29.09,29.09,0,0,0,0,58.17Z"/><path class="cls-1" d="M722.93,606.56a41.39,41.39,0,1,1,29.29,12.14A39.94,39.94,0,0,1,722.93,606.56Zm8.74-49.83a29,29,0,1,0,20.55-8.52A28,28,0,0,0,731.67,556.73Z"/><path class="cls-1" d="M803,617.91V536.69H824.3a40.61,40.61,0,0,1,0,81.22Zm12.25-12.26h9.09a28.35,28.35,0,0,0,0-56.7h-9.09Z"/><path class="cls-1" d="M916.58,536.69V549H887.46v22h22.48v12.31H887.46v22.25h29.12v12.32H875.15V536.69Z"/><path class="cls-1" d="M996.71,536.69V549H967.6v22h22.47v12.31H967.6v34.57H955.28V536.69Z"/><path class="cls-1" d="M1014.42,606.56a41.39,41.39,0,1,1,29.28,12.14A39.91,39.91,0,0,1,1014.42,606.56Zm8.74-49.83a29,29,0,1,0,20.54-8.52A28,28,0,0,0,1023.16,556.73Z"/><path class="cls-1" d="M1151.93,617.91H1138l-17.77-34.23h-13.9v34.23H1094V536.69h30a23.46,23.46,0,0,1,19.46,36.61,23.14,23.14,0,0,1-10.27,8.51ZM1124,571.37a11.13,11.13,0,0,0,11.12-11.12,10.94,10.94,0,0,0-3.23-8A10.8,10.8,0,0,0,1124,549h-17.65v22.36Z"/><path class="cls-1" d="M1245.52,536.69v81.22H1233.2V583.4h-33v34.51h-12.32v-81.1h12.32v34.28h33v-34.4Z"/><path class="cls-1" d="M1318.27,536.69v81.22H1305.9V599h-27.58l-12,19h-14.59l51.36-81.22Zm-32.17,49.95h19.8V555.36Z"/><path class="cls-1" d="M1389.39,617.91h-13.91l-17.76-34.23h-13.91v34.23H1331.5V536.69h30a23.66,23.66,0,0,1,23.5,23.56,22.71,22.71,0,0,1-4,13,23.19,23.19,0,0,1-10.27,8.51Zm-27.93-46.54a11.15,11.15,0,0,0,11.13-11.12,10.91,10.91,0,0,0-3.24-8,10.76,10.76,0,0,0-7.89-3.29h-17.65v22.36Z"/><path class="cls-1" d="M1408.79,617.91h-12.31v-81.1h12.31Z"/><path class="cls-1" d="M1506.3,536.69v81.22H1494V566.32l-22.59,51.59h-13.9l-22.19-51.25v51.25H1423V536.69h12.89l28.6,66.29,28.94-66.29Z"/><path class="cls-1" d="M1579.85,536.69v81.22h-12.37V599h-27.59l-12,19h-14.59l51.36-81.22Zm-32.18,49.95h19.81V555.36Z"/><path class="cls-1" d="M1908.61,721.81H1813V685.1a18.81,18.81,0,0,0-18.79-18.79h-2a18.81,18.81,0,0,0-18.79,18.79v36.71h-74.24a11.76,11.76,0,0,1-11.75-11.76V636.61h-17.47a39.07,39.07,0,0,1-39-39v-2a39.08,39.08,0,0,1,39-39h17.47v-56a11.76,11.76,0,0,1,11.75-11.75h54V470a39.07,39.07,0,0,1,39-39h2a39.07,39.07,0,0,1,39,39v18.79h75.4a11.77,11.77,0,0,1,11.76,11.75v76.21H1885a18.81,18.81,0,0,0-18.79,18.79v2A18.81,18.81,0,0,0,1885,616.38h35.39v93.67A11.77,11.77,0,0,1,1908.61,721.81Zm-75.4-20.23h66.92v-65H1885a39.07,39.07,0,0,1-39-39v-2a39.08,39.08,0,0,1,39-39h15.15V509.05H1813V470a18.81,18.81,0,0,0-18.79-18.79h-2A18.81,18.81,0,0,0,1773.37,470v39h-65.76v67.73h-37.7a18.81,18.81,0,0,0-18.79,18.79v2a18.81,18.81,0,0,0,18.79,18.79h37.7v85.2h45.53V685.1a39.07,39.07,0,0,1,39-39h2a39.07,39.07,0,0,1,39,39Z"/></svg>