<svg id="圖層_1" data-name="圖層 1" xmlns="http://www.w3.org/2000/svg" viewBox="0 0 1944 1944"><defs><style>.cls-1{fill:#2fbee6;}.cls-2{fill:#fff;}</style></defs><title>code_for_harima_logo_2</title><circle class="cls-1" cx="972" cy="972" r="972"/><path class="cls-2" d="M1376.83,1107H1046V980a65.08,65.08,0,0,0-65-65h-7a65.08,65.08,0,0,0-65,65v127H652.17a40.71,40.71,0,0,1-40.67-40.67v-254H551.07c-74.44,0-135-60.56-135-135v-7c0-74.44,60.56-135,135-135H611.5V341.67A40.71,40.71,0,0,1,652.17,301H839V236c0-74.44,60.56-135,135-135h7c74.44,0,135,60.56,135,135v65h260.83a40.71,40.71,0,0,1,40.67,40.67V605.28H1295.07a65.07,65.07,0,0,0-65,65v7a65.08,65.08,0,0,0,65,65H1417.5v324A40.71,40.71,0,0,1,1376.83,1107ZM1116,1037h231.5V812.28h-52.43c-74.44,0-135-60.56-135-135v-7c0-74.44,60.56-135,135-135h52.43V371H1046V236a65.08,65.08,0,0,0-65-65h-7a65.08,65.08,0,0,0-65,65V371H681.5V605.28H551.07a65.07,65.07,0,0,0-65,65v7a65.08,65.08,0,0,0,65,65H681.5V1037H839V980c0-74.44,60.56-135,135-135h7c74.44,0,135,60.56,135,135Z"/><path class="cls-2" d="M450.26,1358.6a70.76,70.76,0,0,0,34.12-8.57v33.28a101.08,101.08,0,0,1-34.12,5.9q-42.42,0-72.46-30t-30.05-72.46q0-42.4,30.05-72.45t72.46-30a103.46,103.46,0,0,1,34.12,5.75v33.42a69.89,69.89,0,0,0-34.12-8.7q-29.77,0-50.84,21.2t-21.06,50.83q0,29.77,21.06,50.83T450.26,1358.6Z"/><path class="cls-2" d="M529,1359.16q-30-30-30-72.46t30-72.45q30-30.06,72.46-30t72.45,30q30,30,30,72.45t-30,72.46q-30,30-72.45,30T529,1359.16Zm21.62-123.29q-21.06,21.06-21.06,50.83t21.06,50.83q21.08,21.08,50.84,21.07t50.83-21.07q21.06-21.06,21.06-50.83t-21.06-50.83q-21.06-21.06-50.83-21.06T550.65,1235.87Z"/><path class="cls-2" d="M727,1387.24V1186.3h52.8q41.56,0,71,29.49t29.35,71q0,41.43-29.35,70.91t-71,29.49Zm30.33-30.33h22.47q28.92,0,49.57-20.64,20.49-20.51,20.5-49.43t-20.5-49.57q-20.65-20.64-49.57-20.64H757.35Z"/><path class="cls-2" d="M1008.14,1186.3v30.47h-72v54.49h55.61v30.47H936.1v55h72v30.47H905.63V1186.3Z"/><path class="cls-2" d="M1206.41,1186.3v30.47h-72v54.49H1190v30.47h-55.61v85.51H1103.9V1186.3Z"/><path class="cls-2" d="M1250.22,1359.16q-30.06-30-30-72.46t30-72.45q30-30.06,72.45-30t72.46,30q30,30,30,72.45t-30,72.46q-30.06,30-72.46,30T1250.22,1359.16Zm21.62-123.29q-21.06,21.06-21.06,50.83t21.06,50.83q21.06,21.08,50.83,21.07t50.83-21.07q21.07-21.06,21.07-50.83t-21.07-50.83q-21.06-21.06-50.83-21.06T1271.84,1235.87Z"/><path class="cls-2" d="M1590.45,1387.24h-34.4l-44-84.67h-34.41v84.67h-30.47V1186.3h74.14a58,58,0,0,1,48.17,90.57,57.52,57.52,0,0,1-25.42,21.07Zm-69.09-115.14a27.59,27.59,0,0,0,27.53-27.52,27,27,0,0,0-8-19.66,26.62,26.62,0,0,0-19.52-8.15h-43.67v55.33Z"/><path class="cls-2" d="M622.9,1486.3v200.94H592.43v-85.37H510.71v85.37H480.23V1486.58h30.48v84.82h81.72v-85.1Z"/><path class="cls-2" d="M802.92,1486.3v200.94H772.3v-46.9H704.06l-29.63,46.9H638.35L765.42,1486.3ZM723.3,1609.87h49V1532.5Z"/><path class="cls-2" d="M978.86,1687.24h-34.4l-44-84.67H866.1v84.67H835.63V1486.3h74.14a58,58,0,0,1,48.17,90.57,57.52,57.52,0,0,1-25.42,21.07ZM909.77,1572.1a27.59,27.59,0,0,0,27.53-27.52,27,27,0,0,0-8-19.66,26.62,26.62,0,0,0-19.52-8.15H866.1v55.33Z"/><path class="cls-2" d="M1026.88,1687.24H996.41V1486.58h30.47Z"/><path class="cls-2" d="M1268.12,1486.3v200.94h-30.47V1559.6l-55.89,127.64h-34.4l-54.9-126.8v126.8H1062V1486.3h31.87l70.77,164,71.62-164Z"/><path class="cls-2" d="M1450.1,1486.3v200.94h-30.61v-46.9h-68.24l-29.63,46.9h-36.09l127.08-200.94Zm-79.62,123.57h49V1532.5Z"/></svg>